<svg width="209" height="103" viewBox="0 0 209 103" fill="none" xmlns="http://www.w3.org/2000/svg">
<path d="M36.9286 38.2841H44.1028V34.3499H36.9286V32.7465H44.8466V28.5643H32.1679V44.1854H44.9623V39.9867H36.9286V38.2841Z" fill="white"/>
<path d="M6.64516 28.4486L0 44.1854H5.07479L6.14925 41.5075H11.472L12.563 44.1854H17.737L11.0753 28.4486H6.64516ZM10.0173 37.6064H7.63698L8.82715 34.5979L10.0173 37.6064Z" fill="white"/>
<path d="M19.0759 44.1854H23.8862V32.8457H30.4983V28.5643H19.0759V44.1854Z" fill="white"/>
<path d="M56.831 34.1516H52.1695V28.5643H47.3592V44.1854H52.1695V38.499H56.831V44.1854H61.6413V28.5643H56.831V34.1516Z" fill="white"/>
<path d="M121.299 35.9864C122.506 35.2426 123.134 34.1185 123.134 32.6969C123.134 31.6059 122.787 30.7133 122.076 30.0025C121.101 29.0272 119.696 28.5643 117.762 28.5643H109.761V44.1854H117.811C121.564 44.1854 123.812 42.5159 123.812 39.7223C123.795 37.937 122.985 36.7303 121.299 35.9864ZM116.72 34.5152H114.439V32.5481H116.803C117.828 32.5481 118.357 32.8622 118.357 33.5069C118.357 33.7879 118.357 34.5152 116.72 34.5152ZM114.456 38.0858H117.282C118.059 38.0858 118.985 38.2676 118.985 39.0941C118.985 39.9867 118.076 40.1686 117.332 40.1686H114.456V38.0858Z" fill="white"/>
<path d="M133.498 28.2502C128.787 28.2502 125.084 31.8042 125.084 36.3666C125.084 40.9951 128.688 44.483 133.449 44.483C138.16 44.483 141.863 40.9289 141.863 36.3666C141.879 31.7381 138.276 28.2502 133.498 28.2502ZM133.498 40.0694C131.548 40.0694 130.01 38.4494 130.01 36.3666C130.01 34.2507 131.498 32.6638 133.465 32.6638C135.465 32.6638 136.97 34.2507 136.97 36.3666C136.97 38.5155 135.515 40.0694 133.498 40.0694Z" fill="white"/>
<path d="M63.3274 32.8457H67.8071V44.1854H72.6174V32.8457H77.1136V28.5643H63.3274V32.8457Z" fill="white"/>
<path d="M89.4122 38.3337C88.5526 39.3751 87.7261 40.0363 86.288 40.0363C84.42 40.0363 83.048 38.499 83.048 36.3666C83.048 34.2838 84.4366 32.6969 86.288 32.6969C87.4947 32.6969 88.4369 33.1928 89.313 34.3003L89.5114 34.5483L93.0654 31.8042L92.8835 31.5398C91.2801 29.3247 89.1477 28.2337 86.3375 28.2337C81.6595 28.2337 78.122 31.7216 78.122 36.3501C78.122 40.9785 81.5768 44.4664 86.1722 44.4664C89.1312 44.4664 91.3297 43.3424 93.0654 40.9455L93.2637 40.681L89.6271 38.0857L89.4122 38.3337Z" fill="white"/>
<path d="M94.2721 32.8457H98.7683V44.1854H103.579V32.8457H108.058V28.5643H94.2721V32.8457Z" fill="white"/>
<path d="M50.6983 57.1617V55.8392H45.8715V57.1617C41.243 57.2774 38.2841 59.9553 38.2841 64.0217C38.2841 68.2039 41.243 70.9314 45.8715 71.0636V72.7332H50.6983V71.0636C55.3102 70.9314 58.2857 68.2039 58.2857 64.0217C58.2857 59.9553 55.3268 57.2774 50.6983 57.1617ZM45.8715 66.7161C44.1854 66.6004 43.1936 65.6417 43.1936 64.0878C43.1936 62.5836 44.2019 61.6083 45.8715 61.5091V66.7161ZM50.6983 66.7161V61.5091C52.3513 61.6248 53.3762 62.5836 53.3762 64.0878C53.3762 65.6417 52.3844 66.6004 50.6983 66.7161ZM64.997 66.2037H72.1711V62.2695H64.997V60.6661H72.9315V56.4674H60.2362V72.0885H73.0307V67.9063H64.997V66.2037ZM29.3577 57.1617V55.8392H24.5309V57.1617C19.9024 57.2774 16.9435 59.9553 16.9435 64.0217C16.9435 68.2039 19.9024 70.9314 24.5309 71.0636V72.7332H29.3577V71.0636C33.9862 70.9314 36.9451 68.2039 36.9451 64.0217C36.9286 59.9553 33.9697 57.2774 29.3577 57.1617ZM24.5309 66.7161C22.8448 66.6004 21.8695 65.6417 21.8695 64.0878C21.8695 62.5836 22.8779 61.6083 24.5309 61.5091V66.7161ZM29.3577 66.7161V61.5091C31.0108 61.6248 32.0191 62.5836 32.0191 64.0878C32.0191 65.6417 31.0273 66.6004 29.3577 66.7161ZM7.25678 56.1698C4.66153 56.1698 2.61178 57.1286 0.991818 59.0957L0.793455 59.3437L4.08298 62.1538L4.29787 61.9058C5.10785 60.9967 6.1162 60.5173 7.30637 60.5173C8.5792 60.5173 9.65367 61.2281 10.2322 62.4017H5.53764V65.9888H10.2983C9.75285 67.2616 8.64532 68.0386 7.30637 68.0386C6.1162 68.0386 5.17397 67.5757 4.24828 66.5178L4.04991 66.3029L0.495911 68.832L0.694274 69.0965C2.39689 71.3446 4.52929 72.386 7.40556 72.386C12.001 72.386 15.4558 68.8981 15.4558 64.2697C15.4723 59.6577 11.9348 56.1698 7.25678 56.1698ZM171.667 72.0885H176.477V56.4674H171.667V72.0885ZM149.665 62.0711H145.003V56.4674H140.193V72.0885H145.003V66.4021H149.665V72.0885H154.475V56.4674H149.665V62.0711ZM164.03 61.1785H162.096V56.4839H157.285V72.105H164.245C168.162 72.105 170.576 69.9891 170.576 66.6004C170.576 63.2448 168.063 61.1785 164.03 61.1785ZM163.93 67.9394H162.096V65.0796H163.947C165.088 65.0796 165.765 65.6086 165.765 66.4847C165.765 67.6914 164.774 67.9394 163.93 67.9394ZM188.825 64.1209L193.966 56.4839H188.494L186.015 60.4016L183.552 56.4839H177.981L183.122 64.1705L177.766 72.105H183.221L185.916 67.8898L188.594 72.105H194.164L188.825 64.1209ZM90.718 56.4674H84.9159L80.2544 61.9554V56.4674H75.4441V72.0885H80.2544V68.022L81.395 66.7492L85.0151 72.105H90.8007L84.7341 63.2778L90.718 56.4674ZM135.631 63.8895C136.837 63.1456 137.466 62.0215 137.466 60.5999C137.466 59.509 137.118 58.6163 136.408 57.9055C135.432 56.9302 134.027 56.4674 132.093 56.4674H124.093V72.0885H132.143C135.895 72.0885 138.143 70.4189 138.143 67.6253C138.127 65.8566 137.333 64.6499 135.631 63.8895ZM128.787 60.4677H131.151C132.176 60.4677 132.705 60.7983 132.705 61.4265C132.705 61.7075 132.705 62.4348 131.068 62.4348H128.787V60.4677ZM131.663 68.1047H128.787V66.0053H131.614C132.391 66.0053 133.316 66.1872 133.316 67.0137C133.316 67.9063 132.424 68.1047 131.663 68.1047ZM91.3792 60.7652H95.8589V72.0885H100.669V60.7652H105.149V56.4674H91.3627V60.7652H91.3792ZM111.612 64.154V56.4674H106.852V72.0885H111.232L116.522 64.4019V72.0885H121.282V56.4674H116.902L111.612 64.154Z" fill="white"/>
<path d="M43.3754 89.8749L39.9867 84.3869H35.0937V100.008H39.8214V92.2387L43.1109 97.2639H43.5572L46.8633 92.1891V99.9914H51.657V84.3703H46.7641L43.3754 89.8749ZM24.6135 84.0893C19.9024 84.0893 16.1996 87.6433 16.1996 92.2057C16.1996 96.8341 19.8032 100.322 24.5639 100.322C29.2751 100.322 32.9613 96.7515 32.9613 92.2057C32.9778 87.5772 29.3742 84.0893 24.6135 84.0893ZM24.6135 95.9084C22.6464 95.9084 21.1257 94.2719 21.1257 92.2057C21.1257 90.0898 22.6134 88.5029 24.5805 88.5029C26.5806 88.5029 28.0849 90.0898 28.0849 92.2057C28.0849 94.3381 26.6302 95.9084 24.6135 95.9084ZM62.7819 89.8749L59.3932 84.3869H54.5002V100.008H59.2279V92.2387L62.5174 97.2639H62.9637L66.2698 92.1891V99.9914H71.0635V84.3703H66.1706L62.7819 89.8749ZM80.8329 90.9659L77.6591 84.3869H72.2868L78.2873 95.7101C77.9567 96.0076 77.6261 96.0737 77.3946 96.0737C77.1963 96.0737 76.5185 96.0407 75.8904 95.6109L75.5928 95.4125L73.6423 98.9996L73.9233 99.1649C75.1135 99.8757 76.3367 100.206 77.6756 100.206C80.0891 100.206 81.5933 99.0988 83.0314 96.2721L89.1146 84.3869H83.858L80.8329 90.9659ZM201.52 84.0893C203.752 84.0893 205.289 82.7669 205.636 80.5353L205.686 80.2212L202.826 79.7088L202.727 79.9733C202.463 80.7171 202.099 81.0312 201.52 81.0312C200.958 81.0312 200.611 80.7171 200.33 79.9733L200.231 79.7088L197.371 80.2212L197.421 80.5353C197.784 82.7669 199.305 84.0893 201.52 84.0893ZM16.646 84.3869H10.8438L6.1823 89.8749V84.3869H1.35547V100.008H6.16577V95.9415L7.32289 94.6687L10.943 100.024H16.7286L10.662 91.1973L16.646 84.3869ZM204.231 84.3869L198.942 92.0734V84.3869H194.181V100.008H198.545L203.835 92.3214V100.008H208.595V84.3869H204.231ZM147.02 84.2877L140.375 100.024H145.466L146.541 97.3466H151.863L152.954 100.024H158.128L151.483 84.2877H147.02ZM148.012 93.4454L149.202 90.4369L150.392 93.4454H148.012ZM173.502 84.3869H168.691V95.7101H164.245V84.3869H159.434V100.008H170.543V103H174.692L175.221 95.7101H173.502V84.3869ZM181.701 92.0734V84.3869H176.94V100.008H181.32L186.61 92.3214V100.008H191.371V84.3869H186.99L181.701 92.0734ZM112.207 92.0734V84.3869H107.447V100.008H111.827L117.117 92.3214V100.008H121.878V84.3869H117.497L112.207 92.0734ZM139.962 84.3869H134.16L129.498 89.8749V84.3869H124.688V100.008H129.498V95.9415L130.655 94.6687L134.275 100.024H140.061L133.994 91.1973L139.962 84.3869ZM99.8096 89.9906H95.1481V84.3869H90.3378V100.008H95.1481V94.3215H99.8096V100.008H104.62V84.3869H99.8096V89.9906Z" fill="white"/>
<path d="M6.13271 8.31472V0.64468H1.35547V16.2658H5.73599L11.0257 8.5792V16.2658H15.7864V0.64468H11.4224L6.13271 8.31472ZM28.0684 6.2319H23.4068V0.64468H18.5965V16.2658H23.4068V10.5794H28.0684V16.2658H32.8787V0.64468H28.0684V6.2319ZM47.2269 1.32242V0H42.4001V1.32242C37.7716 1.43813 34.8127 4.11603 34.8127 8.18247C34.8127 12.3646 37.7716 15.0921 42.4001 15.2244V16.8939H47.2269V15.2244C51.8389 15.1087 54.8143 12.3646 54.8143 8.18247C54.8143 4.11603 51.8389 1.45466 47.2269 1.32242ZM42.3836 10.8934C40.714 10.7777 39.7222 9.81897 39.7222 8.26513C39.7222 6.76087 40.7305 5.78559 42.3836 5.68641V10.8934ZM47.2269 10.8934V5.66988C48.8799 5.78559 49.9048 6.76087 49.9048 8.2486C49.8883 9.81897 48.8965 10.7777 47.2269 10.8934ZM64.6994 0.347135C59.9883 0.347135 56.2855 3.90114 56.2855 8.46349C56.2855 13.092 59.8726 16.5798 64.6498 16.5798C69.3609 16.5798 73.0637 13.0258 73.0637 8.46349C73.0637 3.83502 69.4601 0.347135 64.6994 0.347135ZM64.6994 12.1497C62.7488 12.1497 61.2115 10.5298 61.2115 8.44696C61.2115 6.33109 62.6992 4.74418 64.6663 4.74418C66.6665 4.74418 68.1707 6.33109 68.1707 8.44696C68.1707 10.5959 66.6996 12.1497 64.6994 12.1497ZM194.875 11.224C193.42 11.224 192.247 12.3977 192.247 13.8524C192.247 15.307 193.42 16.4807 194.875 16.4807C196.33 16.4807 197.503 15.307 197.503 13.8524C197.503 12.3977 196.33 11.224 194.875 11.224ZM172.658 0.64468H166.856L162.195 6.13272V0.64468H157.385V16.2658H162.195V12.1828L163.335 10.91L166.956 16.2658H172.741L166.675 7.43861L172.658 0.64468ZM75.1796 16.2658H79.9899V4.94255H86.6185V0.64468H75.1796V16.2658ZM144.904 8.31472V0.64468H140.143V16.2658H144.524L149.814 8.5792V16.2658H154.574V0.64468H150.194L144.904 8.31472ZM179.7 0.528968L173.055 16.2492H178.146L179.221 13.5713H184.544L185.635 16.2492H190.809L184.164 0.528968H179.7ZM180.692 9.70326L181.882 6.69475L183.056 9.70326H180.692ZM130.606 1.32242V0H125.779V1.32242C121.167 1.43813 118.191 4.11603 118.191 8.18247C118.191 12.3646 121.167 15.0921 125.779 15.2244V16.8939H130.606V15.2244C135.234 15.1087 138.193 12.3646 138.193 8.18247C138.193 4.11603 135.217 1.45466 130.606 1.32242ZM125.779 10.8934C124.093 10.7777 123.101 9.81897 123.101 8.26513C123.101 6.76087 124.109 5.78559 125.762 5.68641V10.8934H125.779ZM130.606 10.8934V5.66988C132.259 5.78559 133.283 6.76087 133.283 8.2486C133.267 9.81897 132.292 10.7777 130.606 10.8934ZM94.9993 0.64468H88.2715V16.2658H93.0818V11.9844H94.801C98.9666 11.9844 101.562 9.78591 101.562 6.26497C101.562 2.79361 99.0493 0.64468 94.9993 0.64468ZM94.7018 8.08329H93.0653V4.79377H94.6853C95.6275 4.79377 96.7515 5.07479 96.7515 6.43027C96.7515 7.45514 95.9912 8.08329 94.7018 8.08329ZM107.381 0.528968L100.735 16.2492H105.827L106.901 13.5713H112.224L113.315 16.2492H118.489L111.844 0.528968H107.381ZM108.372 9.70326L109.562 6.69475L110.753 9.70326H108.372Z" fill="black"/>
</svg>
