<svg width="243" height="58" viewBox="0 0 243 58" fill="none" xmlns="http://www.w3.org/2000/svg">
<path d="M22.9825 1.20874L29.7659 14.7824L44.566 16.6334L33.4659 27.1221L35.9326 41.9298L22.9825 35.1429L9.41566 41.9298L11.8824 27.1221L1.39893 16.6334L16.1991 14.7824L22.9825 1.20874Z" fill="white" stroke="black" stroke-miterlimit="10" stroke-linecap="round" stroke-linejoin="round"/>
<path d="M101.916 1.20898L108.699 14.7827L123.5 16.6336L112.399 27.1224L114.866 41.93L101.916 35.1432L88.3493 41.93L90.8159 27.1224L80.3325 16.6336L95.1327 14.7827L101.916 1.20898Z" fill="white" stroke="black" stroke-miterlimit="10" stroke-linecap="round" stroke-linejoin="round"/>
<path d="M62.4517 16.0164L69.2351 29.59L84.0352 31.441L72.9351 41.9297L75.4018 56.7374L62.4517 49.9505L48.8849 56.7374L51.3516 41.9297L40.8682 31.441L55.6683 29.59L62.4517 16.0164Z" fill="#FED100" stroke="black" stroke-miterlimit="10" stroke-linecap="round" stroke-linejoin="round"/>
<path d="M101.916 1.20898L108.699 14.7827L123.5 16.6336L112.399 27.1224L114.866 41.93L101.916 35.1432L88.3493 41.93L90.8159 27.1224L80.3325 16.6336L95.1327 14.7827L101.916 1.20898Z" fill="white" stroke="black" stroke-miterlimit="10" stroke-linecap="round" stroke-linejoin="round"/>
<path d="M180.85 1.20923L187.633 14.7829L202.433 16.6339L191.333 27.1226L193.8 41.9303L180.85 35.1434L167.283 41.9303L169.75 27.1226L159.266 16.6339L174.066 14.7829L180.85 1.20923Z" fill="white" stroke="black" stroke-miterlimit="10" stroke-linecap="round" stroke-linejoin="round"/>
<path d="M141.385 16.0166L148.169 29.5903L162.969 31.4412L151.869 41.93L154.335 56.7376L141.385 49.9508L127.819 56.7376L130.285 41.93L119.802 31.4412L134.602 29.5903L141.385 16.0166Z" fill="#FED100" stroke="black" stroke-miterlimit="10" stroke-linecap="round" stroke-linejoin="round"/>
<path d="M180.85 1.20923L187.633 14.7829L202.433 16.6339L191.333 27.1226L193.8 41.9303L180.85 35.1434L167.283 41.9303L169.75 27.1226L159.266 16.6339L174.066 14.7829L180.85 1.20923Z" fill="white" stroke="black" stroke-miterlimit="10" stroke-linecap="round" stroke-linejoin="round"/>
<path d="M220.318 16.0168L227.102 29.5905L241.902 31.4415L230.802 41.9302L233.269 56.7379L220.318 49.951L206.752 56.7379L209.218 41.9302L198.735 31.4415L213.535 29.5905L220.318 16.0168Z" fill="#FED100" stroke="black" stroke-miterlimit="10" stroke-linecap="round" stroke-linejoin="round"/>
</svg>
