<svg width="124" height="57" viewBox="0 0 124 57" fill="none" xmlns="http://www.w3.org/2000/svg">
<path d="M22.6763 0.612549L29.4597 14.1862L44.2598 16.0372L33.1597 26.5259L35.6264 41.3336L22.6763 34.5467L9.10951 41.3336L11.5762 26.5259L1.09277 16.0372L15.8929 14.1862L22.6763 0.612549Z" fill="white" stroke="black" stroke-miterlimit="10" stroke-linecap="round" stroke-linejoin="round"/>
<path d="M101.61 0.612793L108.393 14.1865L123.193 16.0374L112.093 26.5262L114.56 41.3338L101.61 34.547L88.0431 41.3338L90.5098 26.5262L80.0264 16.0374L94.8265 14.1865L101.61 0.612793Z" fill="white" stroke="black" stroke-miterlimit="10" stroke-linecap="round" stroke-linejoin="round"/>
<path d="M62.1455 15.4202L68.9289 28.9938L83.7291 30.8448L72.629 41.3335L75.0957 56.1412L62.1455 49.3544L48.5788 56.1412L51.0454 41.3335L40.562 30.8448L55.3622 28.9938L62.1455 15.4202Z" fill="#FED100" stroke="black" stroke-miterlimit="10" stroke-linecap="round" stroke-linejoin="round"/>
</svg>
