<svg width="912" height="301" viewBox="0 0 912 301" fill="none" xmlns="http://www.w3.org/2000/svg">
<path d="M146.837 170.676L145.767 180.512L147.194 193.926L141.842 288.894L160.04 288.536L162.002 286.032L175.919 216.461L192.511 288.894H212.494L213.564 286.748L202.146 165.31V153.328L157.007 152.433L158.791 157.083C158.791 157.083 171.637 170.676 166.82 174.968C166.998 174.789 152.903 178.903 146.837 170.676Z" fill="#FED100"/>
<path d="M331.674 141.345C331.674 141.345 324.359 154.58 314.011 163.164L300.452 151.718L316.331 130.256L318.115 124.712C318.115 124.712 320.97 93.0562 324.538 83.7562C327.928 74.4561 334.707 72.6676 337.562 71.7734C340.417 70.8792 343.45 70.1638 343.45 70.1638L347.018 76.7811L349.873 76.2446L364.859 67.6599H367.357C367.357 67.6599 381.63 73.0253 384.307 76.96C387.161 80.8946 388.945 84.6504 391.8 97.7063C391.8 97.7063 396.796 115.949 396.974 125.249C396.974 134.549 397.331 138.305 390.373 145.458C383.415 152.612 374.672 161.376 374.672 161.376L370.925 162.628L361.47 150.466L360.399 146.71L364.503 140.987H331.674V141.345Z" fill="#FED100"/>
<path d="M191.976 288.894L213.207 288.536L202.324 165.31V153.327L165.035 152.612H161.467" stroke="#323232" stroke-width="1.5" stroke-miterlimit="10" stroke-linecap="round" stroke-linejoin="round"/>
<path d="M145.945 176.578C145.767 178.724 145.767 181.049 146.124 183.195L146.837 186.414C147.194 188.739 147.373 191.243 147.194 193.747L141.842 288.715L161.467 288.357L175.562 218.607" stroke="#323232" stroke-width="1.5" stroke-miterlimit="10" stroke-linecap="round" stroke-linejoin="round"/>
<path d="M194.295 299.625L181.449 234.167" stroke="#323232" stroke-width="1.5" stroke-miterlimit="10" stroke-linecap="round" stroke-linejoin="round"/>
<path d="M224.626 299.625L213.207 288.715L202.324 165.489V159.408C202.324 152.255 201.789 145.279 200.897 138.126L193.76 89.658" stroke="#323232" stroke-width="1.5" stroke-miterlimit="10" stroke-linecap="round" stroke-linejoin="round"/>
<path d="M197.685 288.894H213.207" stroke="#323232" stroke-width="1.5" stroke-miterlimit="10" stroke-linecap="round" stroke-linejoin="round"/>
<path d="M141.485 299.625L142.02 288.894" stroke="#323232" stroke-width="1.5" stroke-miterlimit="10" stroke-linecap="round" stroke-linejoin="round"/>
<path d="M161.646 288.536L172.886 299.625" stroke="#323232" stroke-width="1.5" stroke-miterlimit="10" stroke-linecap="round" stroke-linejoin="round"/>
<path d="M247.106 128.647L245.679 112.193" stroke="#323232" stroke-width="1.5" stroke-miterlimit="10" stroke-linecap="round" stroke-linejoin="round"/>
<path d="M203.93 124.533C206.606 127.573 208.925 129.72 210.709 130.793C214.456 132.939 221.95 132.76 231.049 131.687C239.256 130.793 249.068 129.362 255.491 126.5C260.665 124.175 264.234 121.493 264.947 118.452C267.267 107.721 242.289 111.477 221.236 113.087" stroke="#323232" stroke-width="1.5" stroke-miterlimit="10" stroke-linecap="round" stroke-linejoin="round"/>
<path d="M221.236 112.908C221.236 112.908 208.39 95.0232 200.718 85.0078C200.718 85.0078 199.469 83.0405 197.685 80.8943C195.901 78.7481 193.582 76.9597 191.084 75.7077C190.014 75.1712 188.943 74.8135 187.873 74.8135C185.375 74.4558 180.558 74.0981 175.919 75.1712" stroke="#323232" stroke-width="1.5" stroke-miterlimit="10" stroke-linecap="round" stroke-linejoin="round"/>
<path d="M185.018 172.822L175.74 218.786" stroke="#323232" stroke-width="1.5" stroke-miterlimit="10" stroke-linecap="round" stroke-linejoin="round"/>
<path d="M153.26 74.9927L149.514 61.0426L152.903 49.0598L172.707 36.5405C172.707 36.5405 176.276 48.5233 176.632 51.7426C176.989 54.9618 179.487 63.1888 173.064 66.408L169.496 67.66L172.886 80.3581L153.26 74.9927Z" fill="white"/>
<path d="M150.94 64.7982L154.33 60.5058C154.33 60.5058 149.156 51.0269 159.147 51.3846L160.218 46.9134C160.753 44.9461 162.002 43.3365 163.786 42.4422L173.242 38.1499" stroke="#323232" stroke-width="1.5" stroke-miterlimit="10" stroke-linecap="round" stroke-linejoin="round"/>
<path d="M160.753 65.8713C160.753 65.8713 169.674 70.5214 175.383 64.6194C181.093 58.7174 173.242 38.15 173.242 38.15C173.242 38.15 175.383 30.4596 166.998 27.598C158.612 24.7364 143.09 36.5404 142.555 41.9058C142.02 47.2712 149.513 63.5463 149.513 63.5463L153.082 74.9925" stroke="#323232" stroke-width="1.5" stroke-miterlimit="10" stroke-linecap="round" stroke-linejoin="round"/>
<path d="M144.34 123.46L151.655 139.556L151.833 148.141" stroke="#323232" stroke-width="1.5" stroke-miterlimit="10" stroke-linecap="round" stroke-linejoin="round"/>
<path d="M287.071 64.7984H292.602C297.597 64.7984 301.522 60.6849 301.522 55.856V10.25C301.522 5.24226 297.419 1.30762 292.602 1.30762H219.095C214.1 1.30762 210.174 5.4211 210.174 10.25V34.5732L193.76 41.5482L210.174 48.881V55.856C210.174 60.8638 214.278 64.7984 219.095 64.7984H277.08" fill="white"/>
<path d="M287.071 64.7984H292.602C297.597 64.7984 301.522 60.6849 301.522 55.856V10.25C301.522 5.24226 297.419 1.30762 292.602 1.30762H219.095C214.1 1.30762 210.174 5.4211 210.174 10.25V34.5732L193.76 41.5482L210.174 48.881V55.856C210.174 60.8638 214.278 64.7984 219.095 64.7984H277.08" stroke="#323232" stroke-width="1.5" stroke-miterlimit="10" stroke-linecap="round" stroke-linejoin="round"/>
<path d="M146.837 170.676L159.148 157.083C159.148 157.083 170.745 169.066 167.176 174.968C163.608 180.87 146.837 170.676 146.837 170.676Z" fill="white"/>
<path d="M146.481 169.424L158.613 156.01" stroke="#323232" stroke-width="1.5" stroke-miterlimit="10" stroke-linecap="round" stroke-linejoin="round"/>
<path d="M151.654 74.9927L136.668 82.1466C132.921 84.2927 130.245 88.0485 129.174 92.3409C125.784 105.397 118.826 133.655 120.61 142.418C122.93 154.043 155.758 182.301 165.928 176.22C176.097 170.139 152.19 148.678 137.917 135.264" stroke="#323232" stroke-width="1.5" stroke-miterlimit="10" stroke-linecap="round" stroke-linejoin="round"/>
<path d="M140.95 86.7966C140.95 86.7966 150.406 89.4793 148.086 102.535C145.767 115.591 141.128 138.126 141.128 138.126" stroke="#323232" stroke-width="1.5" stroke-miterlimit="10" stroke-linecap="round" stroke-linejoin="round"/>
<path d="M151.654 74.9927L173.064 80.1793" stroke="#323232" stroke-width="1.5" stroke-miterlimit="10" stroke-linecap="round" stroke-linejoin="round"/>
<path d="M333.28 299.625L347.732 232.915" stroke="#323232" stroke-width="1.5" stroke-miterlimit="10" stroke-linecap="round" stroke-linejoin="round"/>
<path d="M302.95 299.625L314.368 288L331.674 159.051V141.345L329.533 88.2273" stroke="#323232" stroke-width="1.5" stroke-miterlimit="10" stroke-linecap="round" stroke-linejoin="round"/>
<path d="M335.778 288.358H320.078" stroke="#323232" stroke-width="1.5" stroke-miterlimit="10" stroke-linecap="round" stroke-linejoin="round"/>
<path d="M385.912 299.625L379.311 177.114C379.311 177.114 381.987 167.993 382.701 160.481" stroke="#323232" stroke-width="1.5" stroke-miterlimit="10" stroke-linecap="round" stroke-linejoin="round"/>
<path d="M364.146 288L352.727 299.625" stroke="#323232" stroke-width="1.5" stroke-miterlimit="10" stroke-linecap="round" stroke-linejoin="round"/>
<path d="M385.556 288.358H370.034" stroke="#323232" stroke-width="1.5" stroke-miterlimit="10" stroke-linecap="round" stroke-linejoin="round"/>
<path d="M364.324 141.345H336.492" stroke="#323232" stroke-width="1.5" stroke-miterlimit="10" stroke-linecap="round" stroke-linejoin="round"/>
<path d="M314.012 163.343L300.987 152.434" stroke="#323232" stroke-width="1.5" stroke-miterlimit="10" stroke-linecap="round" stroke-linejoin="round"/>
<path d="M327.571 148.141C322.218 154.937 313.655 165.311 307.767 169.424C303.128 172.643 298.846 174.253 295.813 173.001C284.93 168.53 304.912 146.353 317.937 128.11" stroke="#323232" stroke-width="1.5" stroke-miterlimit="10" stroke-linecap="round" stroke-linejoin="round"/>
<path d="M342.558 70.3428L335.599 72.4889C332.923 73.2043 330.247 74.9928 328.463 77.3178C327.749 78.212 327.035 79.1063 326.5 80.1794C324.895 83.2198 323.646 86.2602 322.932 89.6583C320.077 103.608 318.115 128.11 318.115 128.11" stroke="#323232" stroke-width="1.5" stroke-miterlimit="10" stroke-linecap="round" stroke-linejoin="round"/>
<path d="M342.557 166.741L364.145 287.999" stroke="#323232" stroke-width="1.5" stroke-miterlimit="10" stroke-linecap="round" stroke-linejoin="round"/>
<path d="M370.747 162.807L358.437 149.214C358.437 149.214 346.84 161.197 350.408 167.099C353.977 173.001 370.747 162.807 370.747 162.807Z" fill="white"/>
<path d="M370.926 161.734L358.972 148.141" stroke="#323232" stroke-width="1.5" stroke-miterlimit="10" stroke-linecap="round" stroke-linejoin="round"/>
<path d="M365.93 67.3024L365.216 50.6696L358.437 39.7599L335.778 33.5002C335.778 33.5002 335.956 46.5561 336.492 49.9542C337.027 53.3523 337.205 62.2947 344.342 63.3677L348.089 63.5466L348.624 77.3178L365.93 67.3024Z" fill="white"/>
<path d="M365.038 54.604L360.578 51.3848C360.578 51.3848 362.362 42.2635 355.582 43.1578C354.512 43.3366 353.62 42.2635 353.976 41.1905C354.868 38.1501 354.69 33.3212 353.263 33.1423H336.67" fill="white"/>
<path d="M365.038 54.604L360.578 51.3848C360.578 51.3848 362.362 42.2635 355.582 43.1578C354.512 43.3366 353.62 42.2635 353.976 41.1905C354.868 38.1501 354.69 33.3212 353.263 33.1423H336.67" stroke="#323232" stroke-width="1.5" stroke-miterlimit="10" stroke-linecap="round" stroke-linejoin="round"/>
<path d="M356.118 58.8963C356.118 58.8963 348.982 66.4079 341.845 62.2944C334.709 58.181 335.958 35.2885 335.958 35.2885C335.958 35.2885 334.53 29.0288 341.667 23.4846C348.804 17.9403 363.433 24.3788 366.288 29.3865C371.997 39.7597 365.931 53.1732 365.931 53.1732V67.3022L380.918 74.4561C384.665 76.6022 387.341 80.358 388.411 84.6504C391.801 97.7062 398.759 125.964 396.975 134.728C394.656 146.353 361.828 174.611 351.658 168.53C341.489 162.449 365.396 140.987 379.669 127.574" stroke="#323232" stroke-width="1.5" stroke-miterlimit="10" stroke-linecap="round" stroke-linejoin="round"/>
<path d="M376.635 78.9275C376.635 78.9275 367.179 81.6102 369.499 94.666C371.818 107.722 376.457 130.257 376.457 130.257" stroke="#323232" stroke-width="1.5" stroke-miterlimit="10" stroke-linecap="round" stroke-linejoin="round"/>
<path d="M365.93 67.3025L348.624 77.1391" stroke="#323232" stroke-width="1.5" stroke-miterlimit="10" stroke-linecap="round" stroke-linejoin="round"/>
<path d="M348.624 77.1388L342.023 76.96L343.271 84.1139L337.562 130.256L340.06 141.166L342.736 140.987L346.84 130.256L345.234 95.3812" stroke="#323232" stroke-width="1.5" stroke-miterlimit="10" stroke-linecap="round" stroke-linejoin="round"/>
<path d="M274.581 20.0869H284.394" stroke="#323232" stroke-width="1.5" stroke-miterlimit="10" stroke-linecap="round" stroke-linejoin="round"/>
<path d="M225.86 20.0869H252.444" stroke="#323232" stroke-width="1.5" stroke-miterlimit="10" stroke-linecap="round" stroke-linejoin="round"/>
<path d="M265.483 34.3945H279.577" stroke="#323232" stroke-width="1.5" stroke-miterlimit="10" stroke-linecap="round" stroke-linejoin="round"/>
<path d="M225.86 34.3945H243.345" stroke="#323232" stroke-width="1.5" stroke-miterlimit="10" stroke-linecap="round" stroke-linejoin="round"/>
<path d="M268.337 48.7026H284.394" stroke="#323232" stroke-width="1.5" stroke-miterlimit="10" stroke-linecap="round" stroke-linejoin="round"/>
<path d="M225.432 48.7026H268.337" stroke="#323232" stroke-width="1.5" stroke-miterlimit="10" stroke-linecap="round" stroke-linejoin="round"/>
<path d="M800.033 147.102L796.799 171.473L801.745 288.531L780.631 288.147L778.539 285.461L766.174 215.418L748.484 288.531H726.799L725.658 286.228L742.968 156.696V139.617L745.441 138.082H778.919L779.49 140.001C779.49 140.001 769.789 154.586 773.403 162.262C777.017 169.746 793.566 156.121 800.033 147.102Z" fill="#FED100"/>
<path d="M762.751 226.739L748.674 288.339L725.848 287.955L743.158 156.504L742.968 137.89H780.821C780.821 137.89 768.647 155.929 773.403 162.069C778.158 168.018 792.044 158.231 800.033 147.101L798.702 159.767L796.799 171.472L801.745 288.531L778.919 288.147L765.794 213.306" stroke="#323232" stroke-width="1.5" stroke-miterlimit="10" stroke-linecap="round" stroke-linejoin="round"/>
<path d="M746.012 299.853L761.419 231.537" stroke="#323232" stroke-width="1.5" stroke-miterlimit="10" stroke-linecap="round" stroke-linejoin="round"/>
<path d="M713.674 299.853L725.848 288.147L743.158 156.697V138.658L735.739 83.583" stroke="#323232" stroke-width="1.5" stroke-miterlimit="10" stroke-linecap="round" stroke-linejoin="round"/>
<path d="M742.397 288.531H725.849" stroke="#323232" stroke-width="1.5" stroke-miterlimit="10" stroke-linecap="round" stroke-linejoin="round"/>
<path d="M802.316 299.853L796.8 171.473L798.892 158.999" stroke="#323232" stroke-width="1.5" stroke-miterlimit="10" stroke-linecap="round" stroke-linejoin="round"/>
<path d="M778.919 288.147L766.745 299.853" stroke="#323232" stroke-width="1.5" stroke-miterlimit="10" stroke-linecap="round" stroke-linejoin="round"/>
<path d="M795.658 288.531H778.919" stroke="#323232" stroke-width="1.5" stroke-miterlimit="10" stroke-linecap="round" stroke-linejoin="round"/>
<path d="M771.501 137.89H743.158" stroke="#323232" stroke-width="1.5" stroke-miterlimit="10" stroke-linecap="round" stroke-linejoin="round"/>
<path d="M794.517 152.091L778.919 141.536" stroke="#323232" stroke-width="1.5" stroke-miterlimit="10" stroke-linecap="round" stroke-linejoin="round"/>
<path d="M766.935 46.1626L761.609 44.0517C761.609 44.0517 761.229 32.5378 752.289 38.2947L749.055 34.8406C747.533 33.3054 745.441 32.5378 743.348 32.7297L732.316 33.8811" stroke="#323232" stroke-width="1.5" stroke-miterlimit="10" stroke-linecap="round" stroke-linejoin="round"/>
<path d="M758.566 52.4952C758.566 52.4952 752.859 61.7064 744.49 59.4036C736.12 57.1008 732.316 33.881 732.316 33.881C732.316 33.881 726.039 27.9321 732.316 20.64C738.593 13.3478 759.136 15.8425 762.37 20.64C765.604 25.4375 767.506 44.4355 767.506 44.4355L770.549 58.4441L784.625 62.6659C789 64.0092 792.615 66.8876 794.707 70.9175C801.365 83.1991 815.06 109.681 815.25 118.892C815.441 130.982 788.049 167.251 776.066 163.605C763.892 160.151 783.865 132.901 795.658 116.014" stroke="#323232" stroke-width="1.5" stroke-miterlimit="10" stroke-linecap="round" stroke-linejoin="round"/>
<path d="M781.392 68.231C781.392 68.231 772.261 73.2203 777.587 85.6938C782.913 98.1672 792.995 119.468 792.995 119.468" stroke="#323232" stroke-width="1.5" stroke-miterlimit="10" stroke-linecap="round" stroke-linejoin="round"/>
<path d="M694.843 129.639L693.892 111.984" stroke="#323232" stroke-width="1.5" stroke-miterlimit="10" stroke-linecap="round" stroke-linejoin="round"/>
<path d="M733.647 118.701C731.365 122.155 729.082 125.033 727.37 126.377C723.756 129.255 715.957 130.215 706.066 130.598C697.126 130.982 691.229 130.407 685.713 128.871C680.006 127.336 675.821 124.841 674.49 121.771C670.115 110.065 694.843 111.025 717.859 108.914" stroke="#323232" stroke-width="1.5" stroke-miterlimit="10" stroke-linecap="round" stroke-linejoin="round"/>
<path d="M741.256 64.0093L739.925 64.9688C737.452 66.6959 735.169 68.8068 733.647 71.4933C732.126 73.988 730.984 76.2908 730.984 76.2908C724.327 87.9967 713.484 109.106 713.484 109.106" stroke="#323232" stroke-width="1.5" stroke-miterlimit="10" stroke-linecap="round" stroke-linejoin="round"/>
<path d="M757.995 161.11L765.794 213.307" stroke="#323232" stroke-width="1.5" stroke-miterlimit="10" stroke-linecap="round" stroke-linejoin="round"/>
<path d="M770.55 58.4441L754.762 72.6446" stroke="#323232" stroke-width="1.5" stroke-miterlimit="10" stroke-linecap="round" stroke-linejoin="round"/>
<path d="M578.087 121.771H545.369L560.397 137.123V139.617L550.315 150.939H546.891C546.891 150.939 528.82 137.123 523.875 127.336C518.929 117.549 522.353 112.176 524.065 106.227C525.777 100.278 533.956 70.5336 536.429 68.9984C536.429 68.9984 539.473 69.766 542.326 73.2202C545.179 76.6744 550.125 84.7341 555.261 81.2799C560.587 77.8257 565.152 75.9068 565.152 69.3822L569.527 71.8769L573.902 64.7766C573.902 64.7766 586.647 66.6956 589.69 73.9878C592.733 81.2799 598.82 112.176 598.82 112.176L600.532 115.438L623.739 121.771L625.641 124.073L622.217 137.506L620.125 139.809L590.831 133.86C590.831 133.86 582.842 127.719 581.32 121.771H578.087Z" fill="#FED100"/>
<path d="M570.098 231.921L582.842 287.955L598.44 287.764" stroke="#323232" stroke-width="1.5" stroke-miterlimit="10" stroke-linecap="round" stroke-linejoin="round"/>
<path d="M529.201 225.588L522.163 287.955L537.951 287.763L553.168 225.588" stroke="#323232" stroke-width="1.5" stroke-miterlimit="10" stroke-linecap="round" stroke-linejoin="round"/>
<path d="M522.163 287.955V299.853" stroke="#323232" stroke-width="1.5" stroke-miterlimit="10" stroke-linecap="round" stroke-linejoin="round"/>
<path d="M585.315 299.469L582.842 287.955" stroke="#323232" stroke-width="1.5" stroke-miterlimit="10" stroke-linecap="round" stroke-linejoin="round"/>
<path d="M613.277 299.469L598.44 287.763L578.087 121.771C578.087 121.771 582.652 110.641 583.793 107.762L586.456 102.005C587.598 99.3186 587.978 96.632 587.598 93.7535C587.408 92.794 587.217 92.0264 587.027 91.0669L583.793 79.553" stroke="#323232" stroke-width="1.5" stroke-miterlimit="10" stroke-linecap="round" stroke-linejoin="round"/>
<path d="M582.652 287.955H598.63" stroke="#323232" stroke-width="1.5" stroke-miterlimit="10" stroke-linecap="round" stroke-linejoin="round"/>
<path d="M546.891 121.771H578.087L590.831 225.588H527.108L531.674 158.232C531.674 158.232 525.206 144.799 527.299 133.093" stroke="#323232" stroke-width="1.5" stroke-miterlimit="10" stroke-linecap="round" stroke-linejoin="round"/>
<path d="M537.951 287.764L549.554 299.47" stroke="#323232" stroke-width="1.5" stroke-miterlimit="10" stroke-linecap="round" stroke-linejoin="round"/>
<path d="M621.837 139.426L625.831 123.306" stroke="#323232" stroke-width="1.5" stroke-miterlimit="10" stroke-linecap="round" stroke-linejoin="round"/>
<path d="M597.299 114.287C619.174 120.812 649.038 126.377 642.761 136.355C641.049 139.042 636.484 140.385 630.777 140.769C623.549 141.153 613.277 139.042 604.907 136.931L595.016 134.628C590.641 133.669 587.407 130.982 584.554 127.528" stroke="#323232" stroke-width="1.5" stroke-miterlimit="10" stroke-linecap="round" stroke-linejoin="round"/>
<path d="M576.945 65.5447L580.369 66.3123C583.223 67.0799 585.886 68.6151 587.788 70.9178C588.549 71.8773 589.31 72.8368 589.88 73.7963C591.592 76.8667 592.924 80.129 593.685 83.5832C596.728 97.7837 599.581 114.671 599.581 114.671" stroke="#323232" stroke-width="1.5" stroke-miterlimit="10" stroke-linecap="round" stroke-linejoin="round"/>
<path d="M549.364 152.091L561.347 138.85" stroke="#323232" stroke-width="1.5" stroke-miterlimit="10" stroke-linecap="round" stroke-linejoin="round"/>
<path d="M551.836 61.7064L552.407 44.6274L559.445 33.4972L582.652 26.9727C582.652 26.9727 582.461 40.4056 581.891 43.8598C581.32 47.314 581.13 56.5251 573.902 57.6765L570.097 57.8684L569.527 72.0689L551.836 61.7064Z" fill="white"/>
<path d="M561.728 53.071C561.728 53.071 569.146 60.7469 576.375 56.5251C583.793 52.3034 582.271 28.8917 582.271 28.8917C582.271 28.8917 586.837 21.5995 579.418 16.0344C572 10.2774 553.168 17.5696 551.266 22.9428C549.174 28.316 551.646 47.314 551.646 47.314V61.7064L540.614 66.6958C536.809 68.9986 533.956 72.6447 532.815 77.0583C529.391 90.4913 519.309 114.671 521.782 123.498C524.636 134.244 557.733 164.372 568.195 158.232C578.657 152.091 553.739 131.75 542.896 119.468" stroke="#323232" stroke-width="1.5" stroke-miterlimit="10" stroke-linecap="round" stroke-linejoin="round"/>
<path d="M549.364 88.5725C547.081 102.005 543.277 119.468 543.277 119.468" stroke="#323232" stroke-width="1.5" stroke-miterlimit="10" stroke-linecap="round" stroke-linejoin="round"/>
<path d="M573.521 86.8451L569.527 71.685L551.836 61.7063" stroke="#323232" stroke-width="1.5" stroke-miterlimit="10" stroke-linecap="round" stroke-linejoin="round"/>
<path d="M537.951 43.8599C544.608 34.8407 543.847 27.9323 552.407 21.4077C552.407 21.4077 565.152 11.6209 576.565 14.4994C587.978 17.3779 582.461 28.8918 582.461 28.8918L572 30.2351C569.907 30.427 568.195 31.7703 567.054 33.6893L564.771 37.9111C555.07 34.265 557.353 45.587 557.353 45.587C557.353 45.587 573.331 65.7364 560.777 77.8261C548.222 89.9157 544.038 69.5744 536.619 68.9987C529.01 68.423 531.483 52.6873 537.951 43.8599Z" fill="white" stroke="#323232" stroke-width="1.5" stroke-miterlimit="10" stroke-linecap="round" stroke-linejoin="round"/>
<path d="M581.51 46.738C581.51 46.738 593.494 60.171 587.407 69.3821C587.407 69.3821 578.467 65.5442 573.902 64.5847L573.521 57.6763C573.521 57.6763 579.418 58.8277 581.51 46.738Z" fill="white" stroke="#323232" stroke-width="1.5" stroke-miterlimit="10" stroke-linecap="round" stroke-linejoin="round"/>
<path d="M628.553 66.8565H623.022C618.027 66.8565 614.102 62.743 614.102 57.9141V12.3081C614.102 7.30036 618.205 3.36572 623.022 3.36572H696.529C701.525 3.36572 705.45 7.47921 705.45 12.3081V36.6313L721.864 43.6064L705.45 50.9391V57.9141C705.45 62.9219 701.346 66.8565 696.529 66.8565H638.544" fill="white"/>
<path d="M628.553 66.8565H623.022C618.027 66.8565 614.102 62.743 614.102 57.9141V12.3081C614.102 7.30036 618.205 3.36572 623.022 3.36572H696.529C701.525 3.36572 705.45 7.47921 705.45 12.3081V36.6313L721.864 43.6064L705.45 50.9391V57.9141C705.45 62.9219 701.346 66.8565 696.529 66.8565H638.544" stroke="#323232" stroke-width="1.5" stroke-miterlimit="10" stroke-linecap="round" stroke-linejoin="round"/>
<path d="M641.043 22.145H631.23" stroke="#323232" stroke-width="1.5" stroke-miterlimit="10" stroke-linecap="round" stroke-linejoin="round"/>
<path d="M689.764 22.145H663.18" stroke="#323232" stroke-width="1.5" stroke-miterlimit="10" stroke-linecap="round" stroke-linejoin="round"/>
<path d="M645.141 36.4526H631.047" stroke="#323232" stroke-width="1.5" stroke-miterlimit="10" stroke-linecap="round" stroke-linejoin="round"/>
<path d="M689.764 36.4526H656.746" stroke="#323232" stroke-width="1.5" stroke-miterlimit="10" stroke-linecap="round" stroke-linejoin="round"/>
<path d="M647.287 50.7607H631.23" stroke="#323232" stroke-width="1.5" stroke-miterlimit="10" stroke-linecap="round" stroke-linejoin="round"/>
<path d="M690.192 50.7607H647.287" stroke="#323232" stroke-width="1.5" stroke-miterlimit="10" stroke-linecap="round" stroke-linejoin="round"/>
<path d="M19.4517 261.532C13.5548 254.062 1 237.78 1 212.304C1 212.304 24.2073 224.372 30.8651 266.321" stroke="#323232" stroke-width="1.5" stroke-miterlimit="10" stroke-linecap="round" stroke-linejoin="round"/>
<path d="M35.2401 266.321L39.8055 252.146C39.8055 252.146 32.9574 212.112 61.1106 194.873C61.1106 194.873 67.5782 228.969 44.5611 248.89" stroke="#323232" stroke-width="1.5" stroke-miterlimit="10" stroke-linecap="round" stroke-linejoin="round"/>
<path d="M43.6102 298.501H27.2509C20.7833 298.501 15.0766 294.095 13.3646 287.774L13.1744 287.008C11.4624 280.304 10.5112 273.217 10.5112 266.321H60.1596V266.512C60.1596 273.6 59.2085 280.878 57.3063 287.774C55.7845 294.095 50.0778 298.501 43.6102 298.501Z" stroke="#323232" stroke-width="1.5" stroke-miterlimit="10" stroke-linecap="round" stroke-linejoin="round"/>
<path d="M49.8873 259.233L62.6324 244.101" stroke="#323232" stroke-width="1.5" stroke-miterlimit="10" stroke-linecap="round" stroke-linejoin="round"/>
<path d="M29.5337 230.693C29.5337 230.693 13.9354 213.262 19.6421 189.126C19.6421 189.126 35.6209 201.386 29.5337 230.693Z" stroke="#323232" stroke-width="1.5" stroke-miterlimit="10" stroke-linecap="round" stroke-linejoin="round"/>
<path d="M867.819 261.532C861.922 254.062 849.368 237.78 849.368 212.304C849.368 212.304 872.575 224.372 879.233 266.321" stroke="#323232" stroke-width="1.5" stroke-miterlimit="10" stroke-linecap="round" stroke-linejoin="round"/>
<path d="M883.608 266.321L888.173 252.146C888.173 252.146 881.325 212.112 909.478 194.873C909.478 194.873 915.946 228.969 892.929 248.89" stroke="#323232" stroke-width="1.5" stroke-miterlimit="10" stroke-linecap="round" stroke-linejoin="round"/>
<path d="M891.978 298.501H875.619C869.151 298.501 863.444 294.095 861.732 287.774L861.542 287.008C859.83 280.304 858.879 273.217 858.879 266.321H908.527V266.512C908.527 273.6 907.576 280.878 905.674 287.774C904.152 294.095 898.445 298.501 891.978 298.501Z" stroke="#323232" stroke-width="1.5" stroke-miterlimit="10" stroke-linecap="round" stroke-linejoin="round"/>
<path d="M898.255 259.233L911 244.101" stroke="#323232" stroke-width="1.5" stroke-miterlimit="10" stroke-linecap="round" stroke-linejoin="round"/>
<path d="M877.901 230.693C877.901 230.693 862.303 213.262 868.01 189.126C868.01 189.126 883.988 201.386 877.901 230.693Z" stroke="#323232" stroke-width="1.5" stroke-miterlimit="10" stroke-linecap="round" stroke-linejoin="round"/>
</svg>
