<svg width="246" height="208" viewBox="0 0 246 208" fill="none" xmlns="http://www.w3.org/2000/svg">
<g clip-path="url(#clip0)">
<path d="M195.963 151.552H227.901L228.966 167.536H195.963V151.552Z" fill="#F7CD00"/>
<path d="M217.21 213.944H12.4359C6.91151 213.944 2.95489 208.65 4.44796 203.355L18.0348 155.034C22.0661 140.716 33.712 129.829 48.2694 126.697L65.1411 123.118C67.9032 122.521 70.2921 120.955 71.9345 118.644L80.2957 106.936L83.8044 78.2268" stroke="#231F20" stroke-width="1.5" stroke-miterlimit="10" stroke-linecap="round" stroke-linejoin="round"/>
<path d="M53.6439 170.544L47.373 213.944" stroke="#231F20" stroke-width="1.5" stroke-miterlimit="10" stroke-linecap="round" stroke-linejoin="round"/>
<path d="M160.698 155.705L163.535 213.944" stroke="#231F20" stroke-width="1.5" stroke-miterlimit="10" stroke-linecap="round" stroke-linejoin="round"/>
<path d="M231.096 213.944L228.109 151.977H195.71" stroke="#231F20" stroke-width="1.5" stroke-miterlimit="10" stroke-linecap="round" stroke-linejoin="round"/>
<path d="M195.71 204.474V144.221" stroke="#231F20" stroke-width="1.5" stroke-miterlimit="10" stroke-linecap="round" stroke-linejoin="round"/>
<path d="M200.337 167.86H228.855" stroke="#231F20" stroke-width="1.5" stroke-miterlimit="10" stroke-linecap="round" stroke-linejoin="round"/>
<path d="M220.943 159.732H224.004" stroke="#231F20" stroke-width="1.5" stroke-miterlimit="10" stroke-linecap="round" stroke-linejoin="round"/>
<path d="M80.147 107.085L111.8 127.667L123.073 111.932L122.027 101.194" stroke="#231F20" stroke-width="1.5" stroke-miterlimit="10" stroke-linecap="round" stroke-linejoin="round"/>
<path d="M131.359 122.67L123.073 111.932" stroke="#231F20" stroke-width="1.5" stroke-miterlimit="10" stroke-linecap="round" stroke-linejoin="round"/>
<path d="M72.5327 124.759L97.3923 143.923L111.8 127.667L124.417 142.133L134.57 126.026C134.57 126.026 138.452 129.307 147.41 131.768C149.799 132.439 152.934 133.185 156.294 133.931C169.358 136.839 180.108 145.936 185.11 158.315L195.785 184.862" stroke="#231F20" stroke-width="1.5" stroke-miterlimit="10" stroke-linecap="round" stroke-linejoin="round"/>
<path d="M116.726 213.944L111.799 127.667" stroke="#231F20" stroke-width="1.5" stroke-miterlimit="10" stroke-linecap="round" stroke-linejoin="round"/>
<path d="M206.684 129.829C206.684 129.829 211.313 134.9 211.686 140.12" stroke="#231F20" stroke-width="1.5" stroke-miterlimit="10" stroke-linecap="round" stroke-linejoin="round"/>
<path d="M220.495 151.977V145.116C220.495 145.116 222.735 143.401 223.406 136.242C224.004 129.084 222.063 119.166 222.063 119.166C222.063 119.166 224.825 109.77 222.585 107.607C221.167 106.191 218.703 108.129 218.703 108.129C218.703 108.129 219.301 104.476 216.986 103.357C214.672 102.238 212.358 104.401 212.358 104.401C212.358 104.401 212.88 100.822 210.641 99.8522C208.401 98.8828 205.938 102.462 204.445 105.296C202.951 108.129 201.309 113.275 201.309 113.275" stroke="#231F20" stroke-width="1.5" stroke-miterlimit="10" stroke-linecap="round" stroke-linejoin="round"/>
<path d="M206.684 115.437L212.283 104.401" stroke="#231F20" stroke-width="1.5" stroke-miterlimit="10" stroke-linecap="round" stroke-linejoin="round"/>
<path d="M212.357 118.271L218.628 108.129" stroke="#231F20" stroke-width="1.5" stroke-miterlimit="10" stroke-linecap="round" stroke-linejoin="round"/>
<path d="M198.771 121.328L208.476 123.864C210.492 124.386 212.657 123.938 214.224 122.596C214.971 121.999 214.971 120.806 214.224 120.21C208.849 115.885 202.355 113.424 197.95 112.082C194.815 111.187 192.202 113.051 192.052 116.332C191.978 118.942 192.127 122.596 192.874 127.369C194.74 139.225 197.801 142.208 197.801 142.208" stroke="#231F20" stroke-width="1.5" stroke-miterlimit="10" stroke-linecap="round" stroke-linejoin="round"/>
<path d="M217.21 119.837L220.271 115.885" stroke="#231F20" stroke-width="1.5" stroke-miterlimit="10" stroke-linecap="round" stroke-linejoin="round"/>
<path d="M195.785 111.933C195.785 111.933 196.606 92.3206 197.95 84.4162C198.995 78.0032 202.579 80.6132 202.803 83.8942C202.952 85.8331 203.922 106.116 203.922 106.116" stroke="#231F20" stroke-width="1.5" stroke-miterlimit="10" stroke-linecap="round" stroke-linejoin="round"/>
<path d="M123.745 79.3454C123.745 79.3454 117.996 79.1962 114.264 77.7048C114.264 77.7048 113.965 85.7584 122.251 85.0127L123.745 79.3454Z" stroke="#231F20" stroke-width="1.5" stroke-miterlimit="10" stroke-linecap="round" stroke-linejoin="round"/>
<path d="M120.683 70.4715H124.938C126.431 70.4715 127.551 69.1293 127.252 67.7124C126.73 64.6551 124.714 59.7334 124.415 57.4963" stroke="#231F20" stroke-width="1.5" stroke-miterlimit="10" stroke-linecap="round" stroke-linejoin="round"/>
<path d="M89.8521 85.0873C89.8521 85.0873 103.812 103.282 123.969 100.449C133.076 99.1811 134.943 87.9956 136.66 74.7967C139.049 56.0796 137.332 40.4945 136.062 36.6914" stroke="#231F20" stroke-width="1.5" stroke-miterlimit="10" stroke-linecap="round" stroke-linejoin="round"/>
<path d="M110.231 60.7776C110.231 60.7776 109.111 60.1064 109.036 58.9879C108.962 57.8693 110.529 56.3034 111.649 56.6762C112.769 57.0491 112.694 61.2996 110.231 60.7776Z" fill="#231F20"/>
<path d="M132.33 60.1061C132.33 60.1061 131.136 59.8824 130.762 58.913C130.314 57.9436 131.21 56.0793 132.33 56.0793C133.45 56.0793 134.644 59.7333 132.33 60.1061Z" fill="#231F20"/>
<path d="M103.438 55.1846C103.438 55.1846 105.529 49.2936 111.8 49.219" stroke="#231F20" stroke-width="1.5" stroke-miterlimit="10" stroke-linecap="round" stroke-linejoin="round"/>
<path d="M130.687 48.1006C130.687 48.1006 135.39 48.1006 137.854 52.2019" stroke="#231F20" stroke-width="1.5" stroke-miterlimit="10" stroke-linecap="round" stroke-linejoin="round"/>
<path d="M87.6117 77.6301C86.3426 78.1521 84.8495 78.4504 83.3564 78.4504C77.3095 78.4504 72.457 73.6033 72.457 67.5632C72.457 61.523 77.3095 56.6759 83.3564 56.6759C83.3564 56.6759 84.8495 63.6855 87.6117 63.9092C90.3738 64.1329 93.8825 52.2763 94.4051 43.4771" stroke="#231F20" stroke-width="1.5" stroke-miterlimit="10" stroke-linecap="round" stroke-linejoin="round"/>
<path d="M87.7617 44.0737C87.7617 44.0737 97.7653 45.7143 107.619 34.2305" stroke="#231F20" stroke-width="1.5" stroke-miterlimit="10" stroke-linecap="round" stroke-linejoin="round"/>
<path d="M127.999 33.3357C127.999 33.3357 116.503 44.2229 103.438 38.3319" stroke="#231F20" stroke-width="1.5" stroke-miterlimit="10" stroke-linecap="round" stroke-linejoin="round"/>
<path d="M140.989 33.3357C140.989 33.3357 134.195 39.8233 123.818 36.6913" stroke="#231F20" stroke-width="1.5" stroke-miterlimit="10" stroke-linecap="round" stroke-linejoin="round"/>
<path d="M130.687 18.72C130.687 18.72 145.17 19.6894 146.663 27.5938C148.156 35.4982 140.691 40.4199 137.033 41.3147" stroke="#231F20" stroke-width="1.5" stroke-miterlimit="10" stroke-linecap="round" stroke-linejoin="round"/>
<path d="M71.2633 58.093C71.2633 58.093 65.6644 38.9285 71.2633 25.6551C76.8623 12.307 96.6455 8.87681 109.038 8.50396C121.43 8.13111 132.927 13.6493 135.241 19.4658" stroke="#231F20" stroke-width="1.5" stroke-miterlimit="10" stroke-linecap="round" stroke-linejoin="round"/>
</g>
<defs>
<clipPath id="clip0">
<rect width="245.926" height="222.7" fill="white" transform="translate(0.0737305 0.243896)"/>
</clipPath>
</defs>
</svg>
