<svg width="363" height="259" viewBox="0 0 363 259" fill="none" xmlns="http://www.w3.org/2000/svg">
<path d="M129.23 137.108H176.583C177.741 137.108 178.882 137.39 179.913 137.932C180.945 138.474 181.837 139.261 182.518 140.227C183.198 141.194 183.647 142.313 183.828 143.493C184.009 144.674 183.917 145.881 183.559 147.018L148.7 257.959H96.0107C94.8517 257.968 93.7073 257.691 92.6727 257.152C91.638 256.613 90.7428 255.826 90.0616 254.858C89.3804 253.89 88.9327 252.768 88.7558 251.585C88.5789 250.403 88.6778 249.194 89.0444 248.058L122.255 142.336C122.734 140.814 123.666 139.489 124.919 138.548C126.172 137.607 127.681 137.1 129.23 137.099" fill="white"/>
<path d="M129.23 137.108H176.583C177.741 137.107 178.882 137.39 179.913 137.932C180.945 138.474 181.837 139.26 182.518 140.227C183.198 141.194 183.647 142.313 183.828 143.493C184.009 144.674 183.917 145.881 183.559 147.018L148.7 257.958H96.0107C94.8517 257.967 93.7073 257.691 92.6727 257.152C91.638 256.612 90.7428 255.826 90.0616 254.858C89.3804 253.89 88.9327 252.768 88.7558 251.585C88.5789 250.403 88.6778 249.194 89.0444 248.058L122.255 142.336C122.735 140.816 123.668 139.492 124.921 138.553C126.174 137.615 127.682 137.109 129.23 137.108Z" stroke="black" stroke-linecap="round" stroke-linejoin="round"/>
<path d="M217.068 257.968H93.5225" stroke="black" stroke-linecap="round" stroke-linejoin="round"/>
<path d="M304.47 1.0835H6.12081C4.76025 1.08349 3.45528 1.64087 2.49236 2.63326C1.52945 3.62566 0.987276 4.97198 0.984863 6.37669V196.292C0.987276 197.697 1.52945 199.043 2.49236 200.036C3.45528 201.028 4.76025 201.585 6.12081 201.585H304.47C305.83 201.585 307.134 201.028 308.096 200.035C309.057 199.042 309.597 197.696 309.597 196.292V6.37669C309.597 4.97285 309.057 3.6265 308.096 2.63384C307.134 1.64117 305.83 1.0835 304.47 1.0835Z" fill="white"/>
<path d="M304.47 1.0835H6.11171C3.28023 1.0835 0.984863 3.45334 0.984863 6.37669V196.264C0.984863 199.187 3.28023 201.557 6.11171 201.557H304.47C307.302 201.557 309.597 199.187 309.597 196.264V6.37669C309.597 3.45334 307.302 1.0835 304.47 1.0835Z" stroke="black" stroke-linecap="round" stroke-linejoin="round"/>
<path d="M309.597 176.313H0.984375" stroke="black" stroke-linecap="round" stroke-linejoin="round"/>
<path d="M309.597 14.6877H0.984375" stroke="black" stroke-linecap="round" stroke-linejoin="round"/>
<path d="M271.8 28.7061L276.755 33.6514" stroke="black" stroke-linecap="round" stroke-linejoin="round"/>
<path d="M276.755 28.7061L271.8 33.6514" stroke="black" stroke-linecap="round" stroke-linejoin="round"/>
<path d="M294.29 131.124L286.562 129.507L288.179 137.245L290.275 135.139L294.158 139.022L296.076 137.104L292.193 133.221L294.29 131.124Z" fill="#FED100" stroke="black" stroke-linecap="round" stroke-linejoin="round"/>
<path d="M343.743 30.2285H289.899V61.2449H343.743V30.2285Z" fill="white" stroke="black" stroke-linecap="round" stroke-linejoin="round"/>
<path d="M292.157 33.312L316.827 47.9976L340.642 33.312" stroke="black" stroke-linecap="round" stroke-linejoin="round"/>
<path d="M319.875 46.1174L340.643 58.9226" stroke="black" stroke-linecap="round" stroke-linejoin="round"/>
<path d="M312.925 46.1174L292.157 58.9226" stroke="black" stroke-linecap="round" stroke-linejoin="round"/>
<path d="M361.794 27.4735C362.239 29.6932 361.958 31.9971 360.992 34.0447C360.027 36.0923 358.428 37.7749 356.433 38.844C354.437 39.9131 352.151 40.3118 349.911 39.9814C347.672 39.6509 345.598 38.6088 343.996 37.009C342.395 35.4091 341.35 33.3365 341.017 31.0973C340.684 28.8581 341.08 26.5712 342.147 24.5745C343.214 22.5779 344.895 20.9773 346.941 20.0095C348.988 19.0417 351.291 18.7578 353.511 19.2C355.554 19.6081 357.431 20.6114 358.905 22.0836C360.379 23.5558 361.384 25.4312 361.794 27.4735Z" fill="white" stroke="black" stroke-linecap="round" stroke-linejoin="round"/>
<path d="M353.494 31.2909C353.474 31.6308 353.582 31.9658 353.795 32.2311C353.896 32.3438 354.021 32.4326 354.161 32.4911C354.301 32.5496 354.452 32.5764 354.604 32.5695C354.901 32.573 355.196 32.512 355.468 32.3909C355.761 32.2558 356.008 32.0406 356.183 31.7704C356.413 31.4041 356.575 30.9998 356.663 30.5764C356.796 29.9589 356.856 29.3277 356.841 28.696C356.857 27.9097 356.709 27.1287 356.409 26.402C356.144 25.7641 355.75 25.1879 355.252 24.7097C354.768 24.255 354.195 23.906 353.569 23.6849C352.915 23.4471 352.225 23.3261 351.529 23.3276C350.661 23.3096 349.799 23.4762 349 23.8165C348.281 24.1151 347.639 24.5714 347.12 25.1515C346.594 25.7378 346.194 26.4258 345.945 27.1729C345.668 27.9807 345.532 28.8296 345.54 29.6832C345.529 30.5962 345.669 31.5047 345.954 32.3721C346.208 33.1286 346.618 33.8235 347.157 34.4123C347.682 34.9792 348.323 35.4251 349.038 35.7191C349.847 36.0431 350.714 36.2029 351.586 36.1892C352.217 36.1907 352.847 36.1277 353.466 36.0012C354.082 35.8674 354.677 35.6491 355.233 35.3525L355.591 36.2926C354.977 36.5353 354.349 36.7394 353.71 36.9037C353.036 37.067 352.345 37.1491 351.651 37.1482C350.655 37.1584 349.664 36.9896 348.727 36.6499C347.869 36.3411 347.089 35.8468 346.443 35.202C345.796 34.5397 345.296 33.7484 344.976 32.8798C344.618 31.8624 344.443 30.7898 344.459 29.7114C344.451 28.7189 344.617 27.7326 344.948 26.7969C345.246 25.9396 345.716 25.1525 346.33 24.484C346.939 23.8275 347.683 23.3111 348.511 22.9703C350.276 22.274 352.235 22.2439 354.021 22.8857C354.779 23.1813 355.472 23.6221 356.061 24.1832C356.63 24.753 357.075 25.4349 357.368 26.1857C357.675 27.0029 357.828 27.87 357.819 28.743C357.835 29.5073 357.743 30.2701 357.546 31.0088C357.395 31.5417 357.146 32.0421 356.813 32.4849C356.541 32.8487 356.178 33.1341 355.76 33.3123C355.361 33.4771 354.932 33.5602 354.5 33.5567C354.358 33.5518 354.216 33.5329 354.077 33.5003C353.683 33.4154 353.323 33.2159 353.043 32.9268C352.885 32.7693 352.774 32.5706 352.723 32.3533C352.507 32.7143 352.176 32.9924 351.783 33.143C351.385 33.3138 350.956 33.4033 350.523 33.4063C350.222 33.424 349.921 33.3798 349.638 33.2763C349.355 33.1728 349.096 33.0122 348.878 32.8046C348.676 32.5922 348.519 32.341 348.418 32.0663C348.316 31.7915 348.271 31.4989 348.286 31.2063C348.282 30.9188 348.326 30.6328 348.417 30.3601C348.516 30.0959 348.67 29.8556 348.868 29.655C349.063 29.4273 349.308 29.2472 349.583 29.1285C349.913 28.9893 350.269 28.922 350.627 28.9311H352.554V27.8687C352.563 27.6957 352.536 27.5227 352.475 27.3608C352.413 27.1988 352.319 27.0516 352.197 26.9285C351.867 26.6604 351.445 26.5321 351.021 26.5712C350.714 26.5699 350.41 26.6441 350.138 26.7875C349.868 26.916 349.64 27.118 349.48 27.3704L348.671 26.9097C348.907 26.5272 349.229 26.2052 349.611 25.9695C350.025 25.7411 350.492 25.6245 350.965 25.631C351.303 25.6258 351.641 25.6605 351.971 25.7345C352.263 25.8005 352.538 25.9252 352.78 26.1011C353.017 26.2769 353.203 26.5142 353.315 26.7875C353.454 27.1239 353.518 27.4863 353.503 27.8499L353.494 31.2909ZM349.235 31.1499C349.23 31.3274 349.265 31.5038 349.337 31.6663C349.408 31.8289 349.515 31.9736 349.649 32.09C349.985 32.3294 350.393 32.4456 350.805 32.4191C351.233 32.4335 351.654 32.3117 352.009 32.0712C352.173 31.947 352.304 31.7843 352.391 31.5974C352.478 31.4105 352.518 31.2052 352.507 30.9994V29.749H350.824C350.42 29.7305 350.021 29.8426 349.686 30.0687C349.529 30.1989 349.406 30.3653 349.327 30.5536C349.249 30.742 349.217 30.9466 349.235 31.1499Z" fill="black"/>
<g style="mix-blend-mode:multiply">
<g style="mix-blend-mode:multiply">
<g style="mix-blend-mode:multiply">
<path d="M298.737 33.6975H334.201C334.906 33.6975 335.583 33.9778 336.082 34.4768C336.581 34.9758 336.861 35.6525 336.861 36.3582V55.0395C336.861 55.7452 336.581 56.4219 336.082 56.9209C335.583 57.4199 334.906 57.7002 334.201 57.7002H298.737C298.032 57.6977 297.357 57.4166 296.859 56.9182C296.36 56.4197 296.079 55.7444 296.077 55.0395V36.3582C296.079 35.6533 296.36 34.978 296.859 34.4795C297.357 33.9811 298.032 33.7 298.737 33.6975Z" fill="#FED100"/>
</g>
</g>
</g>
<path d="M274.278 50.0573V155.547C274.278 156.895 273.742 158.189 272.789 159.142C271.835 160.096 270.542 160.632 269.193 160.632H41.3877C40.0392 160.632 38.7458 160.096 37.7923 159.142C36.8387 158.189 36.303 156.895 36.303 155.547V36.1582C36.303 34.8097 36.8387 33.5164 37.7923 32.5628C38.7458 31.6092 40.0392 31.0735 41.3877 31.0735H255.934" stroke="black" stroke-linecap="round" stroke-linejoin="round"/>
<g style="mix-blend-mode:multiply">
<g style="mix-blend-mode:multiply">
<g style="mix-blend-mode:multiply">
<path d="M141.2 89.3476C141.202 97.6726 138.735 105.811 134.111 112.734C129.487 119.657 122.914 125.053 115.224 128.24C107.533 131.427 99.0693 132.261 90.9042 130.638C82.739 129.014 75.2387 125.005 69.352 119.119C63.4654 113.232 59.4567 105.732 57.8331 97.5666C56.2095 89.4014 57.0439 80.9382 60.2307 73.2473C63.4176 65.5563 68.8137 58.9833 75.7366 54.3595C82.6595 49.7357 90.7982 47.2689 99.1232 47.271C104.65 47.271 110.122 48.3597 115.228 50.4749C120.333 52.5901 124.972 55.6905 128.88 59.5988C132.787 63.5071 135.886 68.1469 138 73.2531C140.114 78.3593 141.201 83.8319 141.2 89.3584" fill="#FED100"/>
</g>
</g>
</g>
<path d="M116.64 98.6928C116.642 99.2722 116.472 99.8392 116.152 100.322C115.831 100.805 115.375 101.182 114.84 101.405C114.305 101.628 113.717 101.688 113.148 101.576C112.579 101.464 112.057 101.186 111.646 100.777C111.236 100.368 110.956 99.8468 110.842 99.2787C110.728 98.7106 110.786 98.1215 111.007 97.5859C111.228 97.0504 111.603 96.5926 112.085 96.2705C112.567 95.9483 113.133 95.7764 113.712 95.7764C114.487 95.7764 115.23 96.0833 115.778 96.6299C116.327 97.1765 116.637 97.9183 116.64 98.6928Z" stroke="black" stroke-linecap="round" stroke-linejoin="round"/>
<path d="M110.037 133.18L112.043 117.633L110.861 106.401L102.827 102.173L99.1196 94.9199" stroke="black" stroke-linecap="round" stroke-linejoin="round"/>
<path d="M117.944 133.18L118.388 117.633L117.196 105.469H125.88" stroke="black" stroke-linecap="round" stroke-linejoin="round"/>
<path d="M125.88 98.6928C125.878 99.2722 126.048 99.8392 126.368 100.322C126.689 100.805 127.145 101.182 127.68 101.405C128.215 101.628 128.803 101.688 129.372 101.576C129.941 101.464 130.463 101.186 130.874 100.777C131.284 100.368 131.564 99.8468 131.678 99.2787C131.792 98.7106 131.734 98.1215 131.513 97.5859C131.292 97.0504 130.917 96.5926 130.435 96.2705C129.953 95.9483 129.387 95.7764 128.808 95.7764C128.033 95.7764 127.29 96.0833 126.742 96.6299C126.193 97.1765 125.883 97.9183 125.88 98.6928V98.6928Z" stroke="black" stroke-linecap="round" stroke-linejoin="round"/>
<path d="M131.897 133.18L132.613 117.633L132.223 104.818L139.53 109.144L147.585 107.409" stroke="black" stroke-linecap="round" stroke-linejoin="round"/>
<path d="M125.878 105.469L126.279 117.633L124.002 133.18" stroke="black" stroke-linecap="round" stroke-linejoin="round"/>
<path d="M132.297 107.713L132.514 114.381C132.548 114.809 132.494 115.24 132.357 115.646C132.219 116.053 132 116.428 131.713 116.747C131.426 117.067 131.076 117.324 130.687 117.505C130.297 117.685 129.874 117.784 129.445 117.796C129.016 117.807 128.588 117.732 128.189 117.573C127.79 117.415 127.427 117.176 127.123 116.873C126.819 116.57 126.58 116.208 126.42 115.809C126.26 115.411 126.183 114.984 126.193 114.554L125.987 108.57" stroke="black" stroke-linecap="round" stroke-linejoin="round"/>
<path d="M117.477 108.049L118.095 114.197C118.131 114.634 118.076 115.074 117.933 115.49C117.79 115.905 117.563 116.286 117.266 116.609C116.968 116.932 116.607 117.19 116.205 117.366C115.803 117.542 115.368 117.633 114.929 117.633V117.633C114.143 117.634 113.384 117.341 112.803 116.811C112.221 116.282 111.858 115.554 111.785 114.771L111.254 110.272" stroke="black" stroke-linecap="round" stroke-linejoin="round"/>
<path d="M65.8968 71.7132L53.4614 84.1594" stroke="black" stroke-linecap="round" stroke-linejoin="round"/>
<path d="M49.9923 77.9341L46.0459 77.9341" stroke="black" stroke-linecap="round" stroke-linejoin="round"/>
<path d="M73.3132 77.9341L69.356 77.9341" stroke="black" stroke-linecap="round" stroke-linejoin="round"/>
<path d="M59.6743 68.2544L59.6743 64.308" stroke="black" stroke-linecap="round" stroke-linejoin="round"/>
<path d="M59.6743 91.5657L59.6743 87.6193" stroke="black" stroke-linecap="round" stroke-linejoin="round"/>
<path d="M53.4614 71.7132L65.8968 84.1594" stroke="black" stroke-linecap="round" stroke-linejoin="round"/>
<path d="M55.9771 45.4218L63.3819 52.8267" stroke="black" stroke-linecap="round" stroke-linejoin="round"/>
<path d="M55.9771 52.8267L63.3819 45.4218" stroke="black" stroke-linecap="round" stroke-linejoin="round"/>
<path d="M89.781 50.6785L84.5986 55.8608" stroke="black" stroke-linecap="round" stroke-linejoin="round"/>
<path d="M84.5986 50.6785L89.781 55.8608" stroke="black" stroke-linecap="round" stroke-linejoin="round"/>
<path d="M80.5658 46.6587L77.8662 43.9591" stroke="black" stroke-linecap="round" stroke-linejoin="round"/>
<path d="M96.5038 62.5945L93.8042 59.8949" stroke="black" stroke-linecap="round" stroke-linejoin="round"/>
<path d="M93.8042 46.6587L96.5038 43.9591" stroke="black" stroke-linecap="round" stroke-linejoin="round"/>
<path d="M77.8662 62.5945L80.5658 59.8949" stroke="black" stroke-linecap="round" stroke-linejoin="round"/>
<path d="M111.393 146.57H260.445" stroke="#DADADA" stroke-miterlimit="10"/>
<path d="M50.6484 146.57H111.394" stroke="black" stroke-linecap="round" stroke-linejoin="round"/>
<path d="M227.809 129.539H260.444" stroke="black" stroke-linecap="round" stroke-linejoin="round"/>
<path d="M179.938 117.797L260.445 117.797" stroke="black" stroke-linecap="round" stroke-linejoin="round"/>
<path d="M179.938 108.049H260.445" stroke="black" stroke-linecap="round" stroke-linejoin="round"/>
<path d="M179.938 91.5657H225.483" stroke="#FED100" stroke-width="4" stroke-linecap="round" stroke-linejoin="round"/>
<path d="M179.938 80.2629L225.815 80.2629" stroke="#FED100" stroke-width="4" stroke-linecap="round" stroke-linejoin="round"/>
</svg>
