<svg width="113" height="65" viewBox="0 0 113 65" fill="none" xmlns="http://www.w3.org/2000/svg">
<path d="M106.178 15.4901V62.0888C106.178 62.6845 105.941 63.2558 105.52 63.677C105.099 64.0983 104.528 64.3349 103.932 64.3349H3.30179C2.70608 64.3349 2.13477 64.0983 1.71354 63.677C1.29231 63.2558 1.05566 62.6845 1.05566 62.0888V9.35037C1.05566 8.75466 1.29231 8.18335 1.71354 7.76212C2.13477 7.34089 2.70608 7.10425 3.30179 7.10425H98.0748" fill="#FED100"/>
<path d="M106.178 15.4901V62.0888C106.178 62.6845 105.941 63.2558 105.52 63.677C105.099 64.0983 104.528 64.3349 103.932 64.3349H3.30179C2.70608 64.3349 2.13477 64.0983 1.71354 63.677C1.29231 63.2558 1.05566 62.6845 1.05566 62.0888V9.35037C1.05566 8.75466 1.29231 8.18335 1.71354 7.76212C2.13477 7.34089 2.70608 7.10425 3.30179 7.10425H98.0748" stroke="black" stroke-width="0.8" stroke-linecap="round" stroke-linejoin="round"/>
<path d="M109.083 0.710938C110.74 0.710938 112.083 2.05408 112.083 3.71094V55.6955C112.083 56.2912 111.847 56.8625 111.425 57.2837C111.004 57.705 110.433 57.9416 109.837 57.9416H9.20706C8.61135 57.9416 8.04004 57.705 7.61881 57.2837C7.19758 56.8625 6.96094 56.2912 6.96094 55.6955V2.95706C6.96094 2.36135 7.19758 1.79004 7.61881 1.36881C8.04004 0.947582 8.61135 0.710938 9.20706 0.710938H109.083Z" fill="white" stroke="black" stroke-width="0.8" stroke-linecap="round" stroke-linejoin="round"/>
</svg>
