<svg width="113" height="65" viewBox="0 0 113 65" fill="none" xmlns="http://www.w3.org/2000/svg">
<path d="M106.122 15.4442V62.0429C106.122 62.6386 105.886 63.2099 105.465 63.6311C105.043 64.0524 104.472 64.289 103.876 64.289H3.24613C2.65042 64.289 2.07911 64.0524 1.65788 63.6311C1.23665 63.2099 1 62.6386 1 62.0429V9.30448C1 8.70877 1.23665 8.13745 1.65788 7.71622C2.07911 7.29499 2.65042 7.05835 3.24613 7.05835H98.0191" fill="#FED100"/>
<path d="M106.122 15.4442V62.0429C106.122 62.6386 105.886 63.2099 105.465 63.6311C105.043 64.0524 104.472 64.289 103.876 64.289H3.24613C2.65042 64.289 2.07911 64.0524 1.65788 63.6311C1.23665 63.2099 1 62.6386 1 62.0429V9.30448C1 8.70877 1.23665 8.13745 1.65788 7.71622C2.07911 7.29499 2.65042 7.05835 3.24613 7.05835H98.0191" stroke="black" stroke-width="0.8" stroke-linecap="round" stroke-linejoin="round"/>
<path d="M109.233 1.20557C110.89 1.20557 112.233 2.54871 112.233 4.20557V56.1901C112.233 56.7858 111.997 57.3571 111.575 57.7784C111.154 58.1996 110.583 58.4362 109.987 58.4362H9.35697C8.76126 58.4362 8.18995 58.1996 7.76872 57.7784C7.34749 57.3571 7.11084 56.7858 7.11084 56.1901V3.45169C7.11084 2.85598 7.34749 2.28467 7.76872 1.86344C8.18995 1.44221 8.76126 1.20557 9.35697 1.20557L109.233 1.20557Z" fill="white" stroke="black" stroke-width="0.8" stroke-linecap="round" stroke-linejoin="round"/>
<g style="mix-blend-mode:multiply">
<g style="mix-blend-mode:multiply">
<g style="mix-blend-mode:multiply">
<path d="M53.4473 26.9474C53.4483 30.6249 52.3586 34.22 50.3161 37.2781C48.2736 40.3362 45.37 42.7199 41.9727 44.1277C38.5753 45.5354 34.8368 45.904 31.2299 45.1868C27.623 44.4696 24.3099 42.6988 21.7095 40.0984C19.1092 37.4981 17.3384 34.1849 16.6212 30.578C15.904 26.9712 16.2725 23.2326 17.6803 19.8353C19.088 16.4379 21.4717 13.5344 24.5298 11.4918C27.5879 9.44934 31.1831 8.35965 34.8606 8.3606C37.3018 8.3606 39.7192 8.84152 41.9745 9.77589C44.2299 10.7103 46.2791 12.0798 48.0051 13.8062C49.7311 15.5327 51.1001 17.5822 52.0339 19.8379C52.9677 22.0935 53.448 24.5109 53.4473 26.9522" fill="#FED100"/>
</g>
</g>
</g>
<path d="M42.5984 31.0756C42.5993 31.3316 42.5243 31.5821 42.3828 31.7953C42.2413 32.0086 42.0396 32.1751 41.8034 32.2737C41.5673 32.3723 41.3071 32.3986 41.056 32.3492C40.8048 32.2999 40.574 32.1771 40.3926 31.9965C40.2113 31.8158 40.0877 31.5854 40.0374 31.3345C39.9871 31.0835 40.0124 30.8233 40.1102 30.5867C40.2079 30.3501 40.3736 30.1479 40.5864 30.0056C40.7991 29.8633 41.0493 29.7874 41.3053 29.7874C41.6474 29.7874 41.9756 29.9229 42.2179 30.1644C42.4603 30.4059 42.5971 30.7335 42.5984 31.0756Z" stroke="black" stroke-width="0.8" stroke-linecap="round" stroke-linejoin="round"/>
<path d="M39.6821 46.3099L40.5681 39.4423L40.046 34.4807L36.4973 32.6129L34.8594 29.4089" stroke="black" stroke-width="0.8" stroke-linecap="round" stroke-linejoin="round"/>
<path d="M43.1752 46.31L43.3715 39.4423L42.8447 34.0688H46.6809" stroke="black" stroke-width="0.8" stroke-linecap="round" stroke-linejoin="round"/>
<path d="M46.6807 31.0756C46.6797 31.3316 46.7548 31.5821 46.8963 31.7953C47.0378 32.0086 47.2394 32.1751 47.4756 32.2737C47.7118 32.3723 47.9719 32.3986 48.2231 32.3492C48.4742 32.2999 48.7051 32.1771 48.8864 31.9965C49.0677 31.8158 49.1913 31.5854 49.2416 31.3345C49.2919 31.0835 49.2666 30.8233 49.1688 30.5867C49.0711 30.3501 48.9054 30.1479 48.6926 30.0056C48.4799 29.8633 48.2297 29.7874 47.9738 29.7874C47.6316 29.7874 47.3035 29.9229 47.0611 30.1644C46.8187 30.4059 46.6819 30.7335 46.6807 31.0756V31.0756Z" stroke="black" stroke-width="0.8" stroke-linecap="round" stroke-linejoin="round"/>
<path d="M49.3384 46.31L49.6545 39.4423L49.4821 33.7815L52.71 35.6924L56.2683 34.9261" stroke="black" stroke-width="0.8" stroke-linecap="round" stroke-linejoin="round"/>
<path d="M46.6796 34.0688L46.8568 39.4423L45.8511 46.31" stroke="black" stroke-width="0.8" stroke-linecap="round" stroke-linejoin="round"/>
<path d="M49.5143 35.0603L49.6101 38.0056C49.6251 38.1948 49.6015 38.385 49.5406 38.5647C49.4798 38.7444 49.383 38.9099 49.2562 39.051C49.1294 39.1921 48.9751 39.3059 48.8029 39.3856C48.6307 39.4652 48.4441 39.5089 48.2544 39.5141C48.0648 39.5193 47.876 39.4859 47.6997 39.4158C47.5234 39.3458 47.3632 39.2406 47.2288 39.1066C47.0944 38.9727 46.9887 38.8128 46.9181 38.6367C46.8475 38.4606 46.8134 38.2719 46.818 38.0823L46.7271 35.4386" stroke="black" stroke-width="0.8" stroke-linecap="round" stroke-linejoin="round"/>
<path d="M42.9687 35.2087L43.2417 37.9242C43.2576 38.1175 43.2332 38.312 43.1702 38.4954C43.1071 38.6788 43.0067 38.8472 42.8753 38.9898C42.7439 39.1325 42.5843 39.2464 42.4067 39.3243C42.2291 39.4021 42.0372 39.4424 41.8433 39.4424V39.4424C41.4958 39.4427 41.1608 39.3132 40.9038 39.0793C40.6469 38.8454 40.4866 38.524 40.4544 38.178L40.2197 36.1905" stroke="black" stroke-width="0.8" stroke-linecap="round" stroke-linejoin="round"/>
<path d="M20.1831 19.1578L14.6899 24.6558" stroke="black" stroke-width="0.8" stroke-linecap="round" stroke-linejoin="round"/>
<path d="M13.1578 21.9058L11.4146 21.9058" stroke="black" stroke-width="0.8" stroke-linecap="round" stroke-linejoin="round"/>
<path d="M23.459 21.9058L21.7109 21.9058" stroke="black" stroke-width="0.8" stroke-linecap="round" stroke-linejoin="round"/>
<path d="M17.4351 17.6299L17.4351 15.8866" stroke="black" stroke-width="0.8" stroke-linecap="round" stroke-linejoin="round"/>
<path d="M17.4351 27.9272L17.4351 26.184" stroke="black" stroke-width="0.8" stroke-linecap="round" stroke-linejoin="round"/>
<path d="M14.6899 19.1578L20.1831 24.6558" stroke="black" stroke-width="0.8" stroke-linecap="round" stroke-linejoin="round"/>
<path d="M15.8018 7.54392L19.0728 10.8149" stroke="black" stroke-width="0.8" stroke-linecap="round" stroke-linejoin="round"/>
<path d="M15.8018 10.8149L19.0728 7.54392" stroke="black" stroke-width="0.8" stroke-linecap="round" stroke-linejoin="round"/>
<path d="M30.734 9.86605L28.4448 12.1553" stroke="black" stroke-width="0.8" stroke-linecap="round" stroke-linejoin="round"/>
<path d="M28.4448 9.86605L30.7341 12.1553" stroke="black" stroke-width="0.8" stroke-linecap="round" stroke-linejoin="round"/>
<path d="M26.6637 8.09033L25.4712 6.89783" stroke="black" stroke-width="0.8" stroke-linecap="round" stroke-linejoin="round"/>
<path d="M33.7032 15.1296L32.5107 13.9371" stroke="black" stroke-width="0.8" stroke-linecap="round" stroke-linejoin="round"/>
<path d="M32.5107 8.09033L33.7032 6.89783" stroke="black" stroke-width="0.8" stroke-linecap="round" stroke-linejoin="round"/>
<path d="M25.4712 15.1296L26.6637 13.9371" stroke="black" stroke-width="0.8" stroke-linecap="round" stroke-linejoin="round"/>
<path d="M40.2808 52.2246H106.122" stroke="#DADADA" stroke-width="0.8" stroke-miterlimit="10"/>
<path d="M13.4473 52.2246H40.281" stroke="black" stroke-width="0.8" stroke-linecap="round" stroke-linejoin="round"/>
<path d="M91.7056 44.7014H106.122" stroke="black" stroke-width="0.8" stroke-linecap="round" stroke-linejoin="round"/>
<path d="M70.5596 39.5146L106.122 39.5147" stroke="black" stroke-width="0.8" stroke-linecap="round" stroke-linejoin="round"/>
<path d="M70.5596 35.2087H106.122" stroke="black" stroke-width="0.8" stroke-linecap="round" stroke-linejoin="round"/>
<path d="M70.5596 27.9272H90.6781" stroke="#FED100" stroke-width="0.8" stroke-linecap="round" stroke-linejoin="round"/>
<path d="M70.5596 22.9343L90.825 22.9343" stroke="#FED100" stroke-width="0.8" stroke-linecap="round" stroke-linejoin="round"/>
</svg>
