<svg width="113" height="65" viewBox="0 0 113 65" fill="none" xmlns="http://www.w3.org/2000/svg">
<path d="M106.266 14.9669V61.5656C106.266 62.1613 106.029 62.7326 105.608 63.1539C105.186 63.5751 104.615 63.8117 104.019 63.8117H3.38919C2.79348 63.8117 2.22217 63.5751 1.80094 63.1539C1.37971 62.7326 1.14307 62.1613 1.14307 61.5656V8.82718C1.14307 8.23147 1.37971 7.66016 1.80094 7.23893C2.22217 6.8177 2.79348 6.58105 3.38919 6.58105H98.1622" fill="#FED100"/>
<path d="M106.266 14.9669V61.5656C106.266 62.1613 106.029 62.7326 105.608 63.1539C105.186 63.5751 104.615 63.8117 104.019 63.8117H3.38919C2.79348 63.8117 2.22217 63.5751 1.80094 63.1539C1.37971 62.7326 1.14307 62.1613 1.14307 61.5656V8.82718C1.14307 8.23147 1.37971 7.66016 1.80094 7.23893C2.22217 6.8177 2.79348 6.58105 3.38919 6.58105H98.1622" stroke="black" stroke-width="0.8" stroke-linecap="round" stroke-linejoin="round"/>
<path d="M109.376 0.728271C111.033 0.728271 112.376 2.07142 112.376 3.72827V55.7128C112.376 56.3085 112.14 56.8798 111.718 57.3011C111.297 57.7223 110.726 57.9589 110.13 57.9589H9.50003C8.90432 57.9589 8.33301 57.7223 7.91178 57.3011C7.49055 56.8798 7.25391 56.3085 7.25391 55.7128V2.9744C7.25391 2.37869 7.49055 1.80738 7.91178 1.38615C8.33301 0.964916 8.90432 0.728271 9.50003 0.728271H109.376Z" fill="white" stroke="black" stroke-width="0.8" stroke-linecap="round" stroke-linejoin="round"/>
<path d="M91.8496 44.2241H106.266" stroke="black" stroke-width="0.8" stroke-linecap="round" stroke-linejoin="round"/>
<path d="M70.7031 39.0374L106.266 39.0374" stroke="black" stroke-width="0.8" stroke-linecap="round" stroke-linejoin="round"/>
<path d="M70.7031 34.7314H106.266" stroke="black" stroke-width="0.8" stroke-linecap="round" stroke-linejoin="round"/>
<path d="M70.7031 27.45H90.8217" stroke="#FED100" stroke-width="0.8" stroke-linecap="round" stroke-linejoin="round"/>
<path d="M70.7031 22.457L90.9685 22.457" stroke="#FED100" stroke-width="0.8" stroke-linecap="round" stroke-linejoin="round"/>
</svg>
